<?xml version="1.0" encoding="UTF-8" standalone="no"?>
<svg
   viewBox="0 0 841.9 595.3"
   version="1.1"
   id="svg2"
   sodipodi:docname="logo.svg"
   inkscape:version="1.4.1-rc (d9e8dc1fe0, 2025-03-10)"
   xmlns:inkscape="http://www.inkscape.org/namespaces/inkscape"
   xmlns:sodipodi="http://sodipodi.sourceforge.net/DTD/sodipodi-0.dtd"
   xmlns="http://www.w3.org/2000/svg"
   xmlns:svg="http://www.w3.org/2000/svg">
  <defs
     id="defs2" />
  <sodipodi:namedview
     id="namedview2"
     pagecolor="#ffffff"
     bordercolor="#000000"
     borderopacity="0.25"
     inkscape:showpageshadow="2"
     inkscape:pageopacity="0.0"
     inkscape:pagecheckerboard="0"
     inkscape:deskcolor="#d1d1d1"
     inkscape:zoom="1.0523815"
     inkscape:cx="420.95001"
     inkscape:cy="297.89578"
     inkscape:window-width="1920"
     inkscape:window-height="1011"
     inkscape:window-x="0"
     inkscape:window-y="32"
     inkscape:window-maximized="1"
     inkscape:current-layer="svg2" />
  <g
     id="g1"
     transform="matrix(2.4848981,0,0,2.4848981,152.95507,-61.447897)">
    <text
       xml:space="preserve"
       style="font-size:72.6303px;text-align:start;writing-mode:lr-tb;direction:ltr;text-anchor:start;fill:#173a2b;fill-opacity:1;stroke-width:6.05252"
       x="59.655426"
       y="140.86105"
       id="text1"><tspan
         sodipodi:role="line"
         id="tspan1"
         x="59.655426"
         y="140.86105"
         style="font-style:normal;font-variant:normal;font-weight:normal;font-stretch:normal;font-family:'Nimbus Mono PS';-inkscape-font-specification:'Nimbus Mono PS';fill:#173a2b;fill-opacity:1;stroke-width:6.05252">B</tspan></text>
    <text
       xml:space="preserve"
       style="font-size:72.6303px;text-align:start;writing-mode:lr-tb;direction:ltr;text-anchor:start;fill:#173a2b;fill-opacity:1;stroke-width:6.05252"
       x="123.05294"
       y="185.00429"
       id="text1-5"><tspan
         sodipodi:role="line"
         id="tspan1-5"
         x="123.05294"
         y="185.00429"
         style="font-style:normal;font-variant:normal;font-weight:normal;font-stretch:normal;font-family:'Nimbus Mono PS';-inkscape-font-specification:'Nimbus Mono PS';fill:#173a2b;fill-opacity:1;stroke-width:6.05252">G</tspan></text>
    <path
       style="fill:#173a2b;fill-opacity:1;stroke-width:1.83516"
       d="m 114.84821,238.14743 c 0,-2.48156 8.12089,-13.33216 11.74821,-15.69721 1.25397,-0.81758 2.29183,-1.61839 2.30638,-1.77956 0.0147,-0.16113 -1.10411,2.2e-4 -2.48593,0.35867 -1.3818,0.35844 -3.51217,0.79475 -4.73413,0.9696 -1.93302,0.2766 -2.47771,0.64016 -4.19111,2.79743 -5.12489,6.45258 -13.95422,11.36214 -20.873063,11.60653 -1.98023,0.0699 -2.85599,-0.0923 -3.0195,-0.55971 -0.42758,-1.22202 7.547803,-8.42466 11.717913,-10.58258 l 3.82149,-1.97751 -4.43342,-0.34683 c -4.40146,-0.34431 -4.44653,-0.33649 -6.249263,1.08324 -2.2995,1.811 -5.97557,3.63496 -9.09912,4.51478 -2.99081,0.84241 -12.06532,0.8646 -14.03035,0.0343 l -1.40596,-0.59406 1.15328,-1.22762 c 1.45113,-1.54465 7.20201,-4.37132 10.39859,-5.11111 1.33529,-0.30902 2.75552,-0.66405 3.1561,-0.78895 0.40058,-0.12498 -0.92346,-0.71197 -2.9423,-1.30462 -2.01885,-0.59265 -3.96714,-1.2608 -4.32954,-1.48476 -0.90026,-0.5564 -10.44995,-0.31948 -13.013372,0.32283 -1.691221,0.42377 -2.024393,0.68605 -1.793926,1.41219 0.294158,0.92681 -0.493997,2.85085 -1.421503,3.47016 -1.019686,0.68087 -3.209978,0.36641 -4.175903,-0.59951 -2.038745,-2.03873 -0.492602,-5.58957 2.352102,-5.40178 2.595623,0.1714 3.547111,0.14094 8.815632,-0.28155 l 5.09831,-0.40886 -3.61578,-1.86364 c -1.98868,-1.02501 -4.43279,-2.3794 -5.431373,-3.00978 l -1.815594,-1.14613 -2.147109,0.94977 c -4.814625,2.12972 -11.498439,2.11387 -17.960491,-0.0426 -3.815942,-1.27342 -7.385949,-3.3159 -6.807282,-3.89456 1.367809,-1.3678 14.682796,-2.09919 18.98757,-1.04298 1.14881,0.28186 2.022806,0.35599 1.942215,0.1648 -0.08058,-0.19126 -1.860233,-1.83507 -3.954757,-3.65287 -3.802216,-3.2999 -3.814861,-3.30609 -8.011632,-3.92393 -6.925795,-1.01962 -12.215037,-1.36978 -12.215037,-0.80866 0,1.81494 -3.62967,2.69836 -5.089339,1.23869 -1.26428,-1.26428 -0.7958,-4.15901 0.795938,-4.91808 1.577119,-0.75213 3.784173,-0.0725 4.136211,1.27373 0.198628,0.75955 0.923336,0.94472 4.750199,1.21374 2.483696,0.17452 5.7652,0.54838 7.292233,0.83066 1.527033,0.28229 2.847906,0.44178 2.935275,0.35441 0.08737,-0.0874 -0.937089,-1.46802 -2.276573,-3.06812 -1.339481,-1.60007 -3.196813,-4.03456 -4.127403,-5.40998 l -1.69198,-2.50072 -3.726444,0.24451 c -6.457365,0.42374 -13.814684,-2.05617 -17.557906,-5.91819 -2.244622,-2.31587 -1.657029,-2.81883 2.836407,-2.42789 6.211216,0.5404 10.386876,1.73498 15.716731,4.49624 0.536404,0.2779 -4.569472,-10.27843 -5.168847,-10.68653 -0.288167,-0.1962 -0.995782,-0.36006 -1.572478,-0.36416 -1.710258,-0.0128 -10.473432,-4.65404 -13.023308,-6.89852 -2.370922,-2.08696 -5.107513,-5.86019 -5.107513,-7.04225 0,-2.23741 11.852436,2.46416 15.8946,6.30499 0.863927,0.82091 1.660011,1.39823 1.769075,1.28297 0.109064,-0.11525 -0.202817,-1.7391 -0.693066,-3.60847 -0.49025,-1.86938 -0.90396,-3.84763 -0.919355,-4.39613 -0.01542,-0.54847 -0.821434,-1.75023 -1.7912,-2.67053 -2.612161,-2.47897 -5.406584,-7.01601 -6.498366,-10.55077 -0.994878,-3.22106 -1.257215,-5.93191 -0.574042,-5.93191 0.873961,0 4.403236,3.01386 5.670252,4.84215 0.745373,1.07558 1.489381,1.95443 1.653353,1.95302 0.59169,-0.006 0.264731,-6.58669 -0.397872,-8.00905 -1.018572,-2.18649 -0.95138,-9.15524 0.117872,-12.22516 1.019686,-2.92761 3.439236,-6.46865 4.419956,-6.46865 0.947684,0 2.227589,4.04435 2.227589,7.03889 0,3.29687 -1.036867,6.64502 -3.138875,10.1357 -1.683755,2.79611 -1.716659,2.95145 -1.716659,8.10435 0,5.58223 0.516523,6.96773 1.483815,3.98012 1.616433,-4.99258 5.086803,-9.41683 7.936509,-10.118 l 1.408695,-0.34661 -0.329663,2.13466 c -0.873447,5.65586 -3.928725,11.7577 -7.790164,15.5581 l -1.798574,1.77015 0.975854,4.0565 c 1.589957,6.60924 6.436605,19.29825 7.386643,19.33898 0.159714,0.007 0.428936,-2.22718 0.598287,-4.96449 0.169349,-2.73731 0.649849,-6.2879 1.067776,-7.89024 0.931612,-3.57176 2.91431,-8.01162 3.57774,-8.01162 0.765263,0 1.495909,3.2348 1.809588,8.01162 0.337816,5.1444 -0.490882,9.38075 -2.828083,14.4573 l -1.514488,3.28957 2.287915,3.34849 c 3.593625,5.25945 3.693627,5.26242 3.693627,0.10956 0,-2.42304 0.231168,-5.45416 0.513707,-6.73582 0.602736,-2.73412 2.440998,-6.70025 3.105501,-6.70025 0.254712,0 1.10996,1.96649 1.900553,4.36998 1.216168,3.69728 1.440001,5.15479 1.45406,9.46828 0.01211,3.73794 -0.217322,5.73951 -0.860115,7.50132 l -0.876732,2.40298 2.443724,2.33115 c 1.34405,1.28214 2.67847,2.33116 2.965379,2.33116 0.870902,0 0.680724,-8.48904 -0.206678,-9.22551 -0.76928,-0.63846 -0.956006,-2.3122 -0.35673,-3.19759 1.327973,-1.96203 4.736227,-1.54251 5.286691,0.65071 0.380194,1.51482 -0.229355,2.58345 -1.957205,3.43131 -1.301295,0.63855 -1.306975,0.66446 -1.169096,5.33308 l 0.138555,4.69141 3.641651,2.53551 c 4.929793,3.43242 13.378933,7.57133 19.648533,9.6251 6.62771,2.17107 8.08161,2.2226 4.8456,0.17177 -2.84309,-1.80183 -9.32768,-7.99967 -11.20679,-10.71124 -0.72955,-1.05274 -2.48229,-2.68128 -3.89497,-3.61895 -4.66263,-3.09488 -7.644612,-8.4417 -8.306491,-14.89389 -0.422632,-4.11992 -0.257813,-6.15604 0.49832,-6.15604 1.17752,0 4.415661,2.74431 6.233441,5.2828 2.26218,3.1591 3.19235,6.03291 3.85983,11.92514 0.44848,3.95896 0.66307,4.5708 2.38587,6.80247 2.39802,3.10634 5.15158,5.72538 4.70498,4.4751 -0.17495,-0.48975 -0.46073,-2.42526 -0.63507,-4.30113 -0.2478,-2.66614 -0.56568,-3.65935 -1.45627,-4.54993 -1.45062,-1.45063 -1.43794,-2.38555 0.0525,-3.87603 1.38879,-1.3888 2.07517,-1.47296 3.55568,-0.43596 1.38379,0.96924 1.44066,3.3141 0.10809,4.45511 -1.21404,1.03951 -1.33589,5.54467 -0.24736,9.14612 0.59382,1.96473 1.18207,2.73025 3.27747,4.26518 2.62177,1.92048 6.95549,4.26737 9.10874,4.93277 1.06909,0.33036 0.96664,0.10644 -0.85904,-1.87815 -2.4107,-2.62044 -6.29165,-8.46894 -6.89696,-10.39359 -1.01246,-3.2192 -1.03922,-3.99999 -0.13709,-3.99999 1.19231,0 5.2665,2.81657 8.78146,6.07081 3.203093,2.96549 5.423753,6.78118 5.423753,9.31945 v 1.6041 l 6.19081,-0.007 c 9.06507,-0.009 9.35449,-0.19224 4.22272,-2.66304 -3.65215,-1.75842 -4.43634,-1.97506 -5.58282,-1.54231 -2.82829,1.06755 -5.2288,-2.60388 -3.09659,-4.73608 1.71363,-1.71366 5.06363,-0.34899 5.06363,2.06272 0,0.84491 0.97152,1.53873 4.97692,3.55433 l 4.9769,2.5045 3.15612,-0.55493 c 1.73584,-0.30521 4.35783,-0.91648 5.82664,-1.35837 3.11576,-0.93737 3.1787,-0.8992 -4.55366,-2.76235 -6.33155,-1.5256 -12.3257,-4.33648 -15.47543,-7.25702 -3.22603,-2.99128 -3.07446,-3.47493 0.97111,-3.09891 7.35131,0.68329 15.87404,3.73639 22.1425,7.93209 2.12404,1.4217 4.07628,2.58492 4.33833,2.58492 0.93833,0 9.55077,-4.30937 12.80703,-6.40819 1.82571,-1.17678 3.5775,-2.29564 3.89285,-2.48639 0.31538,-0.19073 0.70329,-0.13672 0.86203,0.12021 0.15875,0.25684 -1.05672,1.38064 -2.70106,2.49728 -3.06548,2.08172 -12.9025,7.24688 -13.80321,7.24769 -0.27623,2.5e-4 -0.90734,0.68625 -1.40249,1.52443 -1.67422,2.83426 -8.50701,10.98682 -10.85765,12.95489 -2.55073,2.1356 -9.98615,6.88549 -10.77844,6.88549 -0.27175,0 -0.49408,-0.24253 -0.49408,-0.53897 z m 6.32083,-4.04606 c 3.78313,-2.4473 7.87718,-6.37135 11.33172,-10.86121 2.54653,-3.30973 2.73007,-4.14282 0.53171,-2.4136 -0.7624,0.59971 -1.21985,0.82127 -1.01659,0.49235 1.13015,-1.82861 -4.62913,1.4763 -7.39826,4.24545 -3.9498,3.94978 -8.38627,10.69426 -7.03462,10.69426 0.13819,0 1.7519,-0.97076 3.58604,-2.15725 z m -1.22251,-1.72716 c 0.48336,-0.53412 0.98809,-0.97111 1.12161,-0.97111 0.1336,0 -0.15268,0.43699 -0.63607,0.97111 -0.48336,0.5341 -0.98808,0.97109 -1.12161,0.97109 -0.1336,0 0.15269,-0.43699 0.63607,-0.97109 z m 3.88441,-4.36998 c 1.04309,-1.06823 2.00578,-1.94223 2.13931,-1.94223 0.1336,0 -0.61065,0.874 -1.65374,1.94223 -1.04309,1.06821 -2.00578,1.94221 -2.13931,1.94221 -0.1336,0 0.61067,-0.874 1.65374,-1.94221 z m 4.12721,-3.64166 c 0.62722,-0.66763 1.24964,-1.21389 1.38316,-1.21389 0.1336,0 -0.27039,0.54626 -0.89759,1.21389 -0.62723,0.66763 -1.24964,1.21388 -1.38317,1.21388 -0.1336,0 0.2704,-0.54625 0.8976,-1.21388 z m 1.94223,-1.3972 c 0,-0.10075 0.38237,-0.4832 0.84973,-0.84972 0.77011,-0.60397 0.78729,-0.58679 0.18333,0.18333 -0.63432,0.80881 -1.03305,1.06603 -1.03305,0.66641 z m -30.220723,12.07667 c 1.671833,-0.39417 4.295273,-1.3505 5.829873,-2.12515 3.38868,-1.71062 8.95045,-5.81905 8.61412,-6.36323 -0.13379,-0.2166 0.54359,-1.0848 1.50546,-1.92934 0.96186,-0.84453 1.62701,-1.65734 1.47813,-1.80622 -0.5669,-0.5669 -7.48161,1.39888 -10.95161,3.11346 -2.4768,1.22381 -4.82488,2.94318 -7.419363,5.4328 -2.08766,2.00328 -3.79574,3.81477 -3.79574,4.02552 0,0.55776 1.3042,0.46202 4.73913,-0.34784 z m -9.92451,-7.84883 c 3.25632,-0.95595 8.17769,-3.5648 7.95949,-4.21936 -0.54743,-1.64227 -8.83556,-1.54534 -13.90561,0.16259 -1.62491,0.54739 -4.08094,1.68844 -5.45784,2.53566 l -2.50347,1.5404 1.89894,0.61445 c 2.30661,0.74636 8.40332,0.4246 12.00849,-0.63377 z m -24.710841,-5.29308 c 0.419656,-0.41967 0.763011,-1.07517 0.763011,-1.45666 0,-0.73119 -1.676241,-2.63586 -2.319728,-2.63586 -0.791409,0 -2.535806,1.54395 -2.535806,2.24444 0,2.33434 2.484373,3.45621 4.092523,1.84808 z m 38.150624,-1.84085 c 0,-2.17649 -2.49151,-6.12972 -5.586293,-8.86367 -4.28276,-3.78343 -8.32751,-6.45168 -6.57019,-4.33424 0.32275,0.38889 0.46752,0.90008 0.32174,1.13597 -0.47918,0.77534 4.03838,7.81943 6.7607,10.54174 2.540453,2.54046 4.603193,3.73867 3.085703,1.79246 -0.3752,-0.48121 -0.2452,-0.40212 0.28891,0.17581 1.13426,1.22725 1.69943,1.07825 1.69943,-0.44802 z m -5.139283,-3.58696 c -1.02156,-1.2685 -2.60131,-3.28962 -3.51054,-4.49136 -1.59189,-2.10403 -1.59646,-2.12203 -0.12369,-0.48556 2.07458,2.30515 5.976083,7.2833 5.708113,7.2833 -0.1191,0 -1.052343,-1.03786 -2.073903,-2.30638 z m -6.09037,-7.76885 c -0.60397,-0.77012 -0.5868,-0.78728 0.18333,-0.18333 0.80881,0.63433 1.06603,1.03305 0.6664,1.03305 -0.10075,0 -0.4832,-0.38237 -0.84972,-0.84972 z m 43.276193,8.18364 c 0,-0.58175 -4.01277,-3.12598 -8.09833,-5.1346 -4.01624,-1.97455 -8.44862,-3.43624 -13.10973,-4.32324 -3.33604,-0.63486 -3.48236,-0.62387 -3.41602,0.25672 0.0417,0.55345 0.328,0.82072 0.71862,0.67082 0.35714,-0.13708 0.52615,-0.0499 0.37562,0.1937 -1.01402,1.64073 12.28007,7.16195 18.18875,7.55405 1.46881,0.0974 3.2168,0.39742 3.88443,0.66656 0.66763,0.26915 1.26852,0.50322 1.33528,0.52014 0.0668,0.0165 0.12131,-0.16498 0.12131,-0.40415 z m -25.98755,-0.83788 c 0.94639,-0.9464 0.80437,-2.07054 -0.35373,-2.79986 -1.81449,-1.1427 -3.75395,1.68281 -2.02359,2.94808 1.12655,0.82377 1.42388,0.80522 2.37732,-0.14828 z m -47.388046,-4.82465 c 1.404938,-0.41722 2.465976,-0.99948 2.366293,-1.29854 -0.09939,-0.29818 -1.369763,-0.98469 -2.823045,-1.52557 -2.220182,-0.82632 -3.844723,-0.98734 -10.168408,-1.00785 -4.948195,-0.0165 -7.858492,0.17159 -8.496554,0.54801 -0.8921,0.5262 -0.774459,0.65663 1.456661,1.61497 5.593247,2.40248 12.87758,3.0907 17.665053,1.66898 z m -10.008977,-2.00787 c 0.472428,-0.12314 1.127926,-0.11506 1.45666,0.0184 0.328737,0.13305 -0.05779,0.23372 -0.858959,0.22383 -0.801164,-0.009 -1.070129,-0.11873 -0.597701,-0.24182 z m -5.107551,-0.47064 c 0.333818,-0.1347 0.880065,-0.1347 1.213883,0 0.333818,0.1347 0.06069,0.2449 -0.606942,0.2449 -0.667636,0 -0.940759,-0.11011 -0.606941,-0.2449 z m 28.900121,-6.25772 c 0.44099,-0.1692 0.62603,-0.7475 0.50495,-1.57806 -1.10795,-7.5999 -2.37845,-10.68624 -5.88642,-14.29949 -1.23155,-1.26852 -2.395777,-2.30638 -2.587172,-2.30638 -0.191394,0 -0.270596,1.58411 -0.17601,3.52024 0.256744,5.25523 1.841582,9.15431 5.203272,12.80131 1.07958,1.17122 2.02642,2.12947 2.10409,2.12947 0.0777,0 0.45445,-0.12021 0.83729,-0.26709 z m -1.58774,-2.16067 c -0.28585,-0.53412 -0.41047,-0.97111 -0.27695,-0.97111 0.13353,0 0.47666,0.43699 0.7625,0.97111 0.28585,0.53411 0.41047,0.9711 0.27695,0.9711 -0.13353,0 -0.47665,-0.43699 -0.7625,-0.9711 z m -1.45666,-2.42777 c -0.28585,-0.53411 -0.41047,-0.97111 -0.27695,-0.97111 0.13353,0 0.47666,0.437 0.7625,0.97111 0.28585,0.5341 0.41047,0.97111 0.27695,0.97111 -0.13353,0 -0.47665,-0.43701 -0.7625,-0.97111 z m 13.01765,2.82459 c 0.22012,-1.90538 -1.5882,-2.81655 -2.92893,-1.47584 -0.80048,0.80048 -0.86614,1.13736 -0.39374,2.02006 0.84766,1.58385 3.11981,1.2117 3.32267,-0.54422 z m -50.987929,-1.9506 c 1.64811,-1.6481 -0.290062,-4.39385 -2.330657,-3.30176 -1.713836,0.91721 -0.972032,3.88443 0.971106,3.88443 0.427288,0 1.039085,-0.26221 1.359551,-0.58267 z m 20.222537,-4.01072 c 0.949915,-3.64893 0.947243,-5.66937 -0.01376,-10.35785 -0.820641,-4.00395 -1.632128,-6.13465 -2.344815,-6.15669 -0.242737,-0.007 -0.842756,1.4066 -1.333376,3.14246 -0.959506,3.39479 -1.173535,9.62836 -0.439241,12.7927 0.462371,1.99251 2.393175,4.45996 3.007927,3.84393 0.203408,-0.20383 0.70885,-1.67288 1.123204,-3.26455 z m -2.027704,-0.26214 c 0,-1.20176 0.09469,-1.69338 0.210425,-1.09251 0.115726,0.60089 0.115726,1.58413 0,2.185 -0.115743,0.60087 -0.210425,0.10919 -0.210425,-1.09249 z m 10.452819,-0.0971 c 1.24971,-1.24971 -0.08227,-3.4179 -1.820482,-2.96335 -1.383931,0.36192 -1.815188,2.10101 -0.719653,2.90207 1.091024,0.79779 1.786848,0.81456 2.540135,0.0613 z M 41.265263,186.2816 c 0.153163,-0.24784 -0.161678,-0.5903 -0.699674,-0.76106 -0.537987,-0.17067 -0.978156,-0.48439 -0.978156,-0.69697 0,-0.62356 -5.375417,-2.85632 -8.768016,-3.64196 -1.720425,-0.39839 -4.502601,-0.6858 -6.182614,-0.63867 -3.017813,0.0846 -3.041183,0.096 -1.942213,0.93837 2.360484,1.80945 6.837589,3.88576 9.737074,4.5157 3.55204,0.77172 8.435312,0.92903 8.833599,0.28459 z m 2.637678,-4.29817 c 1.879445,-3.68401 2.678603,-7.44716 2.677807,-12.60947 -4.67e-4,-3.03129 -0.21381,-5.18968 -0.545778,-5.52166 -0.299755,-0.29976 -0.429457,-0.84612 -0.288229,-1.21416 0.141234,-0.36804 0.04674,-0.66918 -0.209986,-0.66918 -0.623968,0 -2.419545,6.20671 -3.020085,10.4394 -0.639551,4.50767 -0.649538,10.44876 -0.01597,9.4683 0.383531,-0.59347 0.472059,-0.53354 0.478117,0.32371 0.004,0.5786 -0.265688,1.16224 -0.599506,1.29692 -0.469499,0.18947 -0.471734,0.2536 -0.0099,0.28324 0.328392,0.0211 1.018442,-0.78761 1.533446,-1.7971 z m -0.821977,-2.77732 c 0.0099,-0.80115 0.118717,-1.07012 0.241827,-0.59769 0.123102,0.47243 0.115009,1.12793 -0.01798,1.45666 -0.133013,0.32873 -0.23373,-0.0578 -0.223835,-0.85897 z m 0.467561,-3.64164 c 0,-0.66765 0.110201,-0.94076 0.244908,-0.60694 0.134701,0.33382 0.134701,0.88005 0,1.21387 -0.134701,0.33383 -0.244908,0.0607 -0.244908,-0.60693 z m 0.485555,-2.91332 c 0,-0.66765 0.110201,-0.94076 0.244906,-0.60694 0.134701,0.33382 0.134701,0.88005 0,1.21387 -0.134701,0.33383 -0.244906,0.0607 -0.244906,-0.60693 z m 0.447219,-3.19656 c 0.02331,-0.56565 0.138353,-0.6807 0.293355,-0.29337 0.140261,0.35052 0.123011,0.7693 -0.03834,0.93065 -0.161347,0.16131 -0.276104,-0.12534 -0.255021,-0.63728 z m -10.051292,1.6508 c -0.219522,-0.35158 -0.445819,-0.96698 -0.502882,-1.36756 -0.05705,-0.4006 -1.416514,-1.96766 -3.021004,-3.4824 -2.79467,-2.63836 -6.202874,-4.59307 -11.493508,-6.59187 -2.394968,-0.90483 -2.453721,-0.90516 -2.520844,-0.0147 -0.09499,1.26092 5.307984,6.5592 8.743622,8.57419 2.687256,1.57607 8.670556,4.01774 9.02374,3.6824 0.0935,-0.0888 -0.0095,-0.44906 -0.229124,-0.80066 z m -2.99827,-2.06145 c -2.132562,-1.50788 -2.65181,-2.15261 -0.827044,-1.02692 2.52301,1.55644 3.387593,2.20713 2.89997,2.18254 -0.25971,-0.0128 -1.192529,-0.53312 -2.072926,-1.15562 z m -4.347306,-2.76086 c -1.655015,-1.0599 -2.190604,-1.77166 -0.72833,-0.9679 1.114069,0.61236 2.859341,1.96197 2.549155,1.97126 -0.133527,0.004 -0.952899,-0.44752 -1.820825,-1.00336 z m -3.884428,-2.42775 c -1.655016,-1.05992 -2.190604,-1.77167 -0.72833,-0.96792 1.11407,0.61237 2.859341,1.96197 2.549156,1.97126 -0.133526,0.004 -0.952899,-0.44751 -1.820826,-1.00334 z m -4.976922,-3.38645 c -1.04577,-0.85538 -1.066325,-0.92077 -0.148428,-0.47215 0.585998,0.28642 1.199765,0.73809 1.363927,1.00371 0.438248,0.70911 0.143914,0.58039 -1.215499,-0.53156 z m 11.885445,-7.746 c -0.438861,-0.84865 -0.56138,-1.39681 -0.272268,-1.21814 1.077679,0.66605 0.520509,-2.91367 -0.753239,-4.83942 -1.897951,-2.86948 -5.069811,-6.01625 -5.786859,-5.7411 -1.487034,0.57064 1.990942,8.60726 5.259492,12.15322 2.153286,2.33605 2.860706,2.17452 1.552874,-0.35456 z m 8.274508,-5.02987 c 1.959313,-3.99762 2.730979,-6.98429 1.644357,-6.36436 -0.552358,0.31512 -0.566832,0.26463 -0.07579,-0.26439 0.699775,-0.75392 0.792438,-1.43078 0.195872,-1.43078 -0.773952,0 -3.966304,3.45205 -4.91863,5.31876 -1.316797,2.58113 -2.940338,8.64212 -2.572036,9.60191 0.458015,1.19358 3.657217,-2.63969 5.726229,-6.86114 z m -5.319357,5.87919 c 0.182342,-0.47887 0.453843,-0.74835 0.603339,-0.59885 0.149493,0.14956 3.09e-4,0.5413 -0.331527,0.87065 -0.479541,0.47597 -0.535313,0.4202 -0.271812,-0.2718 z m 4.095988,-8.11208 c 0.285847,-0.53411 0.628971,-0.97112 0.762497,-0.97112 0.133527,0 0.009,0.43701 -0.276944,0.97112 -0.285847,0.5341 -0.628969,0.97111 -0.762497,0.97111 -0.133527,0 -0.009,-0.43701 0.276944,-0.97111 z m 1.45666,-2.42778 c 0.285847,-0.5341 0.628971,-0.97109 0.762497,-0.97109 0.133527,0 0.009,0.43699 -0.276944,0.97109 -0.285847,0.53411 -0.628969,0.97112 -0.762497,0.97112 -0.133527,0 -0.009,-0.43701 0.276944,-0.97112 z m -7.734728,-6.91911 c 0.03101,-0.99275 0.06733,-1.00781 0.397831,-0.16498 0.324139,0.82669 0.473529,0.74744 1.373252,-0.72832 2.221264,-3.64342 3.082721,-8.41307 2.2613,-12.52018 -0.478733,-2.39366 -1.83187,-1.97019 -3.296956,1.0318 -1.671837,3.42563 -2.423046,7.45322 -2.008697,10.76955 0.331604,2.65408 1.206133,3.76131 1.27327,1.61208 z m 0.489759,-2.58961 c 0.02331,-0.56564 0.138353,-0.6807 0.293355,-0.29336 0.140261,0.35052 0.123011,0.7693 -0.03834,0.93065 -0.161347,0.16131 -0.276104,-0.12552 -0.255021,-0.63729 z m 0.523888,-2.63009 c 0,-0.66763 0.110202,-0.94076 0.244906,-0.60694 0.134701,0.33382 0.134701,0.88007 0,1.21389 -0.134701,0.33381 -0.244906,0.0607 -0.244906,-0.60695 z m 0.44722,-2.71099 c 0.02331,-0.56565 0.138353,-0.6807 0.293354,-0.29337 0.140262,0.35052 0.123011,0.7693 -0.03834,0.93065 -0.161348,0.16131 -0.276106,-0.12553 -0.255022,-0.63728 z m 0.485553,-2.42777 c 0.02331,-0.56566 0.138353,-0.6807 0.293354,-0.29335 0.140262,0.35049 0.123011,0.7693 -0.03834,0.93062 -0.161348,0.16132 -0.276104,-0.12534 -0.255022,-0.63727 z m 0.523887,-2.63009 c 0,-0.66763 0.110202,-0.94075 0.244906,-0.60694 0.134701,0.33382 0.134701,0.88007 0,1.21389 -0.1347,0.33381 -0.244906,0.0607 -0.244906,-0.60695 z m 124.824916,83.49744 c -0.60476,-0.24295 -1.32046,-1.02271 -1.59043,-1.73279 -0.92551,-2.43427 0.55877,-4.56165 3.18269,-4.56165 3.06375,0 4.31291,3.86948 1.86957,5.79139 -1.40015,1.10137 -1.8205,1.16245 -3.46183,0.50305 z m 3.37198,-2.16527 c 0.45626,-1.00137 0.3992,-1.38096 -0.32844,-2.185 -1.50848,-1.66686 -3.64342,-0.95672 -3.64342,1.21193 0,2.333 3.01563,3.0718 3.97186,0.97307 z m 5.7392,-5.93031 c -2.41858,-0.8893 -3.28546,-4.06991 -1.53981,-5.64969 1.77319,-1.60472 5.03207,-0.63904 5.48109,1.62419 0.2879,1.45103 -0.54612,3.24468 -1.7675,3.80117 -0.6866,0.31284 -1.2927,0.55156 -1.34691,0.53048 -0.0541,-0.0211 -0.42629,-0.15893 -0.82687,-0.30615 z m 2.33065,-1.69484 c 1.56955,-1.56954 -0.19116,-4.22359 -2.34787,-3.5391 -1.18353,0.37566 -1.75595,2.42701 -0.94865,3.39973 0.72159,0.86947 2.4916,0.94429 3.29652,0.13929 z m 3.90907,-7.76744 c -0.73805,-0.25142 -1.54477,-1.06199 -1.89255,-1.90161 -0.53016,-1.2799 -0.4846,-1.627 0.36327,-2.76778 1.99823,-2.68855 5.97175,-1.61795 5.97175,1.60898 0,2.39638 -2.11486,3.85329 -4.44247,3.06041 z m 2.9956,-1.86487 c 0.73378,-1.37105 0.15453,-2.83524 -1.26235,-3.19085 -1.44541,-0.36276 -2.63188,0.51975 -2.63188,1.95765 0,2.20108 2.88697,3.1153 3.89423,1.2332 z m 5.98262,-19.76797 c -1.73522,-4.51876 -0.84757,-10.43485 2.31353,-15.41939 1.3287,-2.09513 1.49245,-2.78443 1.63157,-6.86815 0.085,-2.49661 -0.011,-4.53927 -0.21271,-4.53927 -0.20205,0 -0.75855,1.03786 -1.23666,2.30638 -1.74313,4.62477 -5.05795,8.37579 -7.4018,8.37579 -1.14026,0 -1.19245,-0.11268 -0.89991,-1.94208 0.78448,-4.9059 3.29854,-10.02401 6.88129,-14.0089 l 2.18148,-2.4263 -0.77191,-3.79991 c -0.95518,-4.70211 -4.21181,-14.5042 -5.92332,-17.82856 l -1.27689,-2.48017 -0.60356,5.3003 c -0.63974,5.61779 -1.97911,10.49982 -3.73463,13.61261 -1.98018,3.51119 -2.55662,2.7801 -3.04404,-3.86076 -0.45422,-6.1883 1.17415,-12.49096 4.66614,-18.06033 0.61419,-0.97957 0.45437,-1.38289 -1.97209,-4.97691 -1.45223,-2.151028 -2.75371,-3.910378 -2.89216,-3.909678 -0.13837,7.1e-4 -0.25984,1.80334 -0.26975,4.005828 -0.0205,4.55092 -1.49765,9.94693 -3.36367,12.28713 l -1.13203,1.4197 -1.13854,-3.63728 c -0.92771,-2.96375 -1.13918,-4.71622 -1.142,-9.46391 -0.004,-5.076758 0.14149,-6.139098 1.12258,-8.254418 l 1.12606,-2.42775 -2.58272,-2.38841 -2.58273,-2.388411 -0.32816,2.145621 c -0.49893,3.26207 -0.45742,6.66569 0.0853,7.00118 0.74434,0.46002 0.57659,2.96164 -0.24426,3.64289 -0.4014,0.33313 -1.27474,0.60569 -1.94072,0.60569 -1.75621,0 -2.67055,-0.97981 -2.67055,-2.86179 0,-1.33451 0.25557,-1.76267 1.33527,-2.23704 1.93393,-0.84966 2.04796,-1.16177 2.05617,-5.6269 0.007,-3.603125 -0.11305,-4.152591 -1.08506,-4.986067 -2.79492,-2.396355 -10.80267,-7.404771 -14.95175,-9.35153 -5.72639,-2.686824 -11.63231,-4.809502 -11.63231,-4.18083 0,0.261327 0.18692,0.475123 0.41534,0.475123 0.90798,0 7.01254,6.114597 9.80703,9.823149 1.62994,2.163106 3.79793,4.537347 4.81775,5.276092 3.11025,2.253043 5.44019,5.901373 6.6369,10.392303 0.65945,2.47477 0.90934,10.026668 0.35028,10.585728 -0.53405,0.53406 -3.85797,-2.19764 -5.69462,-4.67999 -2.30137,-3.110448 -3.58441,-7.382198 -3.74999,-12.485248 -0.12571,-3.875188 -0.23773,-4.254425 -2.02011,-6.840206 -1.03786,-1.50564 -2.4039,-3.223132 -3.03564,-3.816624 l -1.14863,-1.079076 0.0147,3.805412 c 0.0129,3.383361 0.14425,3.925266 1.18082,4.885937 0.64124,0.594297 1.1659,1.527957 1.1659,2.074817 0,1.2703 -1.65306,2.9365 -2.91332,2.9365 -1.26026,0 -2.91332,-1.6662 -2.91332,-2.9365 0,-0.54686 0.54625,-1.50054 1.21388,-2.119283 1.07756,-0.99864 1.20971,-1.500447 1.17658,-4.468181 -0.0536,-4.794692 -0.76462,-6.560302 -3.56921,-8.862165 -2.50798,-2.05841 -7.49265,-4.920438 -8.56975,-4.920438 -0.35895,0 -0.0802,0.574259 0.64804,1.335283 3.24941,3.395362 8.03258,13.48995 6.91944,14.603086 -1.09869,1.098675 -10.63559,-7.216777 -12.34229,-10.76154 -0.5351,-1.111393 -1.11991,-2.952318 -1.29956,-4.090927 -0.40481,-2.565685 -0.60129,-2.624062 -8.21203,-2.440399 l -5.82664,0.140574 3.88282,2.063126 c 3.13715,1.666915 4.18993,2.005521 5.4819,1.763151 2.98434,-0.559871 4.66355,2.538691 2.53133,4.670911 -0.53411,0.534106 -1.4081,0.971113 -1.94221,0.971113 -1.31364,0 -2.91331,-1.685817 -2.91331,-3.070172 0,-1.584002 -8.76753,-6.657199 -10.93902,-6.329696 -4.764913,0.718631 -9.939793,1.797064 -9.939793,2.071421 0,0.175992 1.58413,0.612155 3.52026,0.96926 4.71558,0.869793 11.171573,3.176997 14.445223,5.162367 3.00437,1.822041 7.12305,5.793976 6.44353,6.213953 -0.64469,0.39845 -6.58461,-0.507918 -10.81351,-1.650032 -4.862873,-1.313334 -11.969663,-4.806823 -15.305003,-7.523487 -2.09327,-1.704995 -2.95112,-2.130129 -3.77695,-1.871793 -2.47337,0.773723 -11.01169,4.610387 -13.89319,6.242875 -1.854586,1.050685 -3.291024,1.586534 -3.552395,1.325152 -0.741061,-0.741057 7.479225,-5.107166 14.713285,-7.814801 3.28225,-1.228513 4.34773,-1.871059 5.03676,-3.03747 1.60152,-2.711177 7.90696,-9.8435 10.29416,-11.644162 3.233993,-2.439371 9.457623,-6.234414 10.224043,-6.234414 0.88001,0 0.82048,0.233635 -0.8657,3.397235 -2.22892,4.181877 -7.432433,10.421228 -10.171123,12.195848 -1.32766,0.860288 -2.34565,1.632451 -2.2622,1.715896 0.0835,0.0835 2.06043,-0.103687 4.39327,-0.415793 l 4.241553,-0.567506 3.51197,-3.428689 c 5.67722,-5.542632 12.20708,-8.738329 19.01863,-9.307707 4.8848,-0.408323 4.9717,0.234002 0.59672,4.411218 -3.53735,3.37747 -10.32906,7.537214 -12.30621,7.537214 -0.36965,0 -0.67211,0.185774 -0.67211,0.412838 0,0.227065 1.97276,0.55288 4.38393,0.724027 l 4.38394,0.311189 2.53521,-1.681174 c 4.3699,-2.897814 7.59858,-3.787849 13.94571,-3.844372 5.69976,-0.05083 9.4578,0.700298 9.09211,1.817067 -0.59942,1.830447 -7.82601,5.062223 -12.36958,5.531731 -1.40205,0.144978 -2.54758,0.396726 -2.54565,0.559651 0.002,0.162963 1.9138,1.021232 4.24859,1.907322 4.00401,1.519588 4.57597,1.607657 10.07172,1.550694 7.61923,-0.07891 8.01164,-0.185957 8.01164,-2.183844 0,-1.745056 0.58602,-2.440344 2.45148,-2.908549 1.70758,-0.428584 3.86071,1.29757 3.86071,3.095112 0,1.955622 -1.98631,3.670141 -3.73825,3.226711 -0.74803,-0.189334 -1.79706,-0.345102 -2.33117,-0.346148 -2.50912,-0.0055 -11.41051,0.337651 -11.41051,0.439191 0,0.06295 1.25637,0.75728 2.79193,1.542858 1.53557,0.785596 3.97221,2.182026 5.41475,3.103205 l 2.62282,1.674861 2.03661,-0.900881 c 2.99785,-1.326089 8.06574,-1.641223 12.21623,-0.759629 5.42959,1.153271 12.76716,4.879128 11.70352,5.94277 -0.14003,0.140023 -2.30152,0.469159 -4.80334,0.731422 -4.5292,0.474812 -10.83779,0.04808 -14.3812,-0.972636 -0.86794,-0.250041 -1.57805,-0.383182 -1.57805,-0.295901 0,0.08735 1.65517,1.765408 3.67816,3.729137 4.09368,3.97377 4.32749,4.06265 14.49554,5.50942 l 4.82101,0.68595 1.13318,-1.22274 c 1.4224,-1.53476 3.33577,-1.40057 4.61716,0.32384 0.73432,0.98823 0.82287,1.50059 0.43543,2.51964 -0.95618,2.51492 -4.43622,2.89354 -5.48281,0.59648 -0.40504,-0.88897 -1.0323,-1.16327 -3.23866,-1.41627 -1.50498,-0.1725 -4.56366,-0.64331 -6.79709,-1.04606 -2.23345,-0.40276 -4.14813,-0.64495 -4.25488,-0.53821 -0.10681,0.1068 0.48942,1.04705 1.3248,2.08957 0.83537,1.0425 2.56147,3.43309 3.83577,5.312408 2.30271,3.396 2.32899,3.4158 4.28705,3.22906 5.38304,-0.51335 13.79642,2.45574 17.52544,6.18475 2.86066,2.86067 2.66573,3.14666 -1.88613,2.76706 -4.57557,-0.3816 -9.50071,-1.79393 -12.9476,-3.71288 l -2.48854,-1.3854 2.05933,4.67955 2.05931,4.67958 3.24242,1.3134 c 6.77786,2.74555 12.02112,6.68735 14.39068,10.81867 1.86311,3.24835 1.88985,4.30705 0.0984,3.89262 -2.61361,-0.60458 -10.11691,-4.44479 -12.69362,-6.49661 l -2.61837,-2.08498 0.29511,1.40127 c 0.16241,0.7707 0.56774,2.81443 0.90095,4.54161 0.48636,2.52109 0.91399,3.41089 2.16872,4.51255 3.38507,2.97216 6.6272,9.19244 7.254,13.9174 0.2661,2.006 0.19231,2.46462 -0.39654,2.46462 -0.8194,0 -4.36762,-3.27418 -6.31432,-5.82664 l -1.29612,-1.69945 -0.0228,3.48105 c -0.0128,1.91459 0.32954,4.85639 0.76018,6.53734 0.90494,3.53229 0.66545,6.92324 -0.75249,10.65496 -0.95959,2.52544 -3.15802,5.78933 -3.89948,5.78933 -0.23138,0 -0.81922,-1.03788 -1.30632,-2.3064 z m 1.82483,-1.24253 c 0.0455,-1.45365 0.0701,-1.47439 0.39869,-0.33551 0.34258,1.18719 0.37222,1.17118 1.34844,-0.72834 1.4326,-2.78757 2.18155,-6.85829 1.80956,-9.83552 -0.34925,-2.79537 -1.14298,-3.90423 -1.23477,-1.72501 l -0.0574,1.36391 -0.34799,-1.45666 c -0.34398,-1.44002 -0.36506,-1.42155 -1.84439,1.61592 -1.84199,3.78203 -2.31928,6.94812 -1.5825,10.4972 0.59537,2.86784 1.42926,3.20131 1.5104,0.60401 z m 0.53181,-3.00606 c 0.009,-0.80115 0.11873,-1.07012 0.24184,-0.59769 0.12314,0.47243 0.11506,1.12793 -0.0183,1.45666 -0.13305,0.32873 -0.23373,-0.0578 -0.22384,-0.85897 z m 0.48556,-2.91332 c 0.009,-0.80115 0.11874,-1.07012 0.24182,-0.59769 0.12314,0.47243 0.11507,1.12793 -0.0183,1.45666 -0.13305,0.32873 -0.23374,-0.0578 -0.22383,-0.85897 z m 0.50354,-3.64164 c 0,-0.9347 0.0998,-1.31708 0.22205,-0.84971 0.12222,0.46734 0.12222,1.23209 0,1.69943 -0.12222,0.46734 -0.22205,0.085 -0.22205,-0.84972 z m -5.53368,-7.99718 c 2.3133,-2.08992 4.86992,-7.4795 5.15462,-10.86642 0.11562,-1.37542 0.011,-2.50076 -0.2315,-2.50076 -0.55,0 -3.95458,4.52493 -5.0828,6.75542 -1.43419,2.8354 -2.66517,6.84007 -2.10254,6.84007 0.33007,0 0.29891,0.26504 -0.0855,0.72834 -1.17748,1.41877 0.45461,0.75376 2.34781,-0.95665 z m 1.05105,-5.11276 c 0.28585,-0.53412 0.62897,-0.97111 0.7625,-0.97111 0.13359,0 0.009,0.43699 -0.27695,0.97111 -0.28584,0.5341 -0.62896,0.97109 -0.76249,0.97109 -0.1336,0 -0.009,-0.43699 0.27694,-0.97109 z m 13.12432,2.48764 c -0.6696,-2.7912 -3.24641,-7.3293 -5.47503,-9.64228 -1.7336,-1.79921 -2.05775,-1.78135 -1.35215,0.0745 0.34872,0.91718 0.34351,1.21368 -0.0165,0.99066 -0.76549,-0.47311 -0.029,3.03565 1.11423,5.3087 1.30066,2.58595 5.26441,6.7676 5.85505,6.17694 0.29249,-0.29247 0.24669,-1.36024 -0.12479,-2.90855 z m -1.47103,0.91123 c -0.28585,-0.53411 -0.41047,-0.97112 -0.27695,-0.97112 0.1336,0 0.47665,0.43701 0.76249,0.97112 0.28585,0.5341 0.41047,0.97111 0.27695,0.97111 -0.1336,0 -0.47665,-0.43701 -0.76249,-0.97111 z m -3.88444,-6.79776 c -0.28584,-0.5341 -0.41047,-0.97109 -0.27694,-0.97109 0.1336,0 0.47666,0.43699 0.76251,0.97109 0.28584,0.53411 0.41047,0.97112 0.27694,0.97112 -0.1336,0 -0.47666,-0.43701 -0.76251,-0.97112 z m 10.16715,-9.58966 c -0.64342,-0.73441 -0.8563,-1.06215 -0.47308,-0.72834 1.43454,1.24958 1.47242,0.53732 0.0791,-1.48778 -1.60725,-2.33607 -4.42694,-4.78943 -8.07374,-7.0248 -4.10436,-2.51588 -8.9288,-4.09834 -7.18832,-2.35786 0.18578,0.18578 0.38298,0.64585 0.43824,1.02241 0.1982,1.35042 2.8474,4.25392 5.81069,6.36849 2.36447,1.68723 9.231,5.33636 10.37093,5.51149 0.11323,0.0184 -0.3204,-0.56921 -0.96383,-1.30361 z m -2.46022,-1.94222 c -0.60397,-0.77011 -0.58679,-0.78729 0.18334,-0.18334 0.80881,0.63431 1.06602,1.03305 0.6664,1.03305 -0.10075,0 -0.4832,-0.38237 -0.84972,-0.84971 z m -4.06527,-2.83447 -1.45666,-1.2516 1.57804,1.0443 c 0.86794,0.57435 1.57806,1.13867 1.57806,1.25401 0,0.36347 -0.20562,0.23682 -1.69944,-1.04671 z m -4.85554,-3.39888 -1.45666,-1.2516 1.57805,1.0443 c 0.86792,0.57437 1.57806,1.13868 1.57806,1.25402 0,0.36345 -0.20563,0.23681 -1.69945,-1.04672 z m -2.73247,-2.02105 c -0.60397,-0.77013 -0.58679,-0.7873 0.18333,-0.18333 0.80881,0.6343 1.06603,1.03303 0.66641,1.03303 -0.10075,0 -0.4832,-0.38238 -0.84972,-0.84972 z m -11.58094,4.85553 c 1.82812,-4.85496 3.63676,-16.16995 2.46934,-15.44845 -0.35191,0.2175 -0.42607,-0.16113 -0.22675,-1.15762 0.16296,-0.81443 0.16333,-1.4808 8.6e-4,-1.4808 -0.51188,0 -2.61971,4.53708 -3.47558,7.48117 -1.10783,3.81081 -1.21401,13.39351 -0.14846,13.39665 0.18113,5.3e-4 0.80237,-1.2554 1.38057,-2.79095 z m -0.94318,-1.8613 c 0.0233,-0.56563 0.13837,-0.6807 0.29335,-0.29335 0.14021,0.35052 0.12295,0.7693 -0.0384,0.93065 -0.16131,0.16131 -0.2761,-0.12553 -0.25501,-0.6373 z m 0.48555,-2.42775 c 0.0233,-0.56565 0.13837,-0.6807 0.29335,-0.29337 0.1402,0.35051 0.12295,0.7693 -0.0384,0.93065 -0.16131,0.16131 -0.27612,-0.12553 -0.25503,-0.63728 z m 0.48554,-1.94223 c 0.0233,-0.56563 0.13837,-0.6807 0.29337,-0.29335 0.14021,0.35052 0.12296,0.7693 -0.0384,0.93065 -0.16131,0.16131 -0.2761,-0.12534 -0.25504,-0.6373 z m 0.48557,-2.42775 c 0.0233,-0.56565 0.13837,-0.6807 0.29335,-0.29337 0.14021,0.35052 0.12295,0.7693 -0.0384,0.93065 -0.16131,0.16131 -0.2761,-0.12553 -0.25501,-0.63728 z m 0.52388,-2.14453 c 0,-0.66764 0.1103,-0.94076 0.2449,-0.60695 0.13471,0.33382 0.13471,0.88007 0,1.21389 -0.1347,0.33382 -0.2449,0.0607 -0.2449,-0.60694 z m 0.44721,-2.22545 c 0.0233,-0.56565 0.13837,-0.6807 0.29337,-0.29337 0.14021,0.35052 0.12296,0.7693 -0.0384,0.93065 -0.16131,0.16131 -0.2761,-0.12553 -0.25504,-0.63728 z m -7.28763,-3.96536 c 0.84994,-2.78947 1.13404,-4.83083 1.09814,-7.89025 -0.0539,-4.595278 -0.59516,-6.476198 -2.09441,-7.278568 -0.90211,-0.48279 -1.09202,-0.34473 -1.79615,1.30574 -0.43306,1.0151 -0.89172,3.5404 -1.01925,5.61176 -0.29711,4.825428 1.04219,12.014348 2.23826,12.014348 0.23477,0 0.94279,-1.69336 1.57341,-3.76303 z m -1.30353,-8.861338 c 0,-3.33818 0.0776,-4.7038 0.17232,-3.03472 0.0949,1.6691 0.0949,4.400328 0,6.069408 -0.0949,1.6691 -0.17232,0.30348 -0.17232,-3.034688 z m 28.39877,11.620228 c 1.59222,0.85212 1.22222,-0.19295 -0.54519,-1.53987 -3.86986,-2.94922 -10.34911,-5.19463 -15.05215,-5.21641 -1.94959,-0.009 -2.44807,0.69815 -0.84972,1.20546 0.53411,0.16957 0.97112,0.52622 0.97112,0.79264 0,1.44973 13.36115,5.86039 14.14068,4.668 0.18685,-0.28583 0.69706,-0.25138 1.33526,0.0901 z m -42.92897,-9.79942 c -0.0853,-2.647238 -0.48342,-4.944738 -1.17358,-6.774268 -1.1236,-2.9785 -5.02002,-7.771746 -6.0091,-7.3922 -0.89095,0.34189 -0.17727,7.09711 1.10941,10.50134 0.94216,2.49264 4.8766,7.670958 5.82835,7.670958 0.20578,0 0.316,-1.80263 0.24492,-4.00583 z m -6.53573,-12.502998 c -0.28584,-0.53411 -0.41047,-0.9711 -0.27694,-0.9711 0.1336,0 0.47666,0.43699 0.76251,0.9711 0.28584,0.5341 0.41047,0.97111 0.27694,0.97111 -0.1336,0 -0.47666,-0.43701 -0.76251,-0.97111 z m 14.08106,8.25441 c 0,-1.06641 -1.67374,-2.14914 -2.70848,-1.75206 -0.96621,0.37077 -0.86313,2.57825 0.14681,3.14343 1.10754,0.61981 2.56171,-0.16994 2.56171,-1.39137 z m 27.68767,-1.46778 c 0.79214,-0.79215 0.87996,-1.17335 0.45379,-1.96964 -0.69849,-1.30517 -1.62107,-1.61311 -2.85474,-0.95287 -1.19744,0.64085 -1.30997,2.07779 -0.24604,3.14172 1.0013,1.0013 1.46487,0.96291 2.64699,-0.21921 z m -49.32949,-5.60743 c 1.18458,-1.18456 0.75622,-2.4174 -0.93643,-2.69508 -2.05441,-0.33703 -3.08043,1.91719 -1.33526,2.93365 1.15142,0.67064 1.38725,0.64587 2.27169,-0.23857 z m 39.55936,-6.480382 c 0.51683,-0.327227 0.22504,-0.662438 -1.21389,-1.394521 -3.67438,-1.869407 -8.55746,-3.088084 -12.57644,-3.138734 -4.55068,-0.05726 -7.87764,0.814152 -7.02592,1.840411 0.53915,0.649629 5.41404,2.411973 7.75424,2.803284 2.37773,0.39757 12.39338,0.312896 13.06201,-0.110476 z m -3.44198,-0.857149 c 0.35052,-0.140206 0.7693,-0.122956 0.93065,0.03835 0.16131,0.161311 -0.12534,0.276118 -0.6373,0.255032 -0.56563,-0.02331 -0.6807,-0.138371 -0.29335,-0.293369 z m -2.91332,-0.485547 c 0.35051,-0.140207 0.7693,-0.122956 0.93065,0.03835 0.16131,0.16131 -0.12553,0.2761 -0.6373,0.255014 -0.56563,-0.02331 -0.6807,-0.138372 -0.29335,-0.293351 z m -3.39887,-0.485548 c 0.3505,-0.140206 0.7693,-0.122956 0.93063,0.03835 0.16131,0.161311 -0.12553,0.2761 -0.63728,0.255014 -0.56565,-0.02331 -0.6807,-0.138371 -0.29335,-0.29335 z m -4.40033,-0.475454 c 0.33381,-0.134701 0.88007,-0.134701 1.21388,0 0.33382,0.134701 0.0608,0.244921 -0.60694,0.244921 -0.66763,0 -0.94076,-0.11011 -0.60694,-0.244921 z m -33.30841,0.652804 c -0.3028,-0.364848 -0.42344,-0.790441 -0.26811,-0.945769 0.15525,-0.155255 -0.61414,-1.992473 -1.70995,-4.082539 -2.09642,-3.998508 -5.60376,-8.399943 -6.83531,-8.577771 -0.40059,-0.05781 -1.00146,-0.275788 -1.33528,-0.484336 -0.86247,-0.538804 -0.80103,2.643699 0.0923,4.781773 0.81969,1.961789 4.3814,5.910398 7.74097,8.581826 2.23756,1.779227 3.52392,2.183036 2.31535,0.726816 z m -4.44338,-6.157869 c -0.57048,-0.801159 -0.92799,-1.456661 -0.79447,-1.456661 0.1336,0 0.70953,0.655502 1.28001,1.456661 0.57048,0.801177 0.92799,1.45666 0.79446,1.45666 -0.1336,0 -0.70953,-0.655483 -1.28,-1.45666 z m -2.00417,-2.791925 c -0.60395,-0.770126 -0.58679,-0.787285 0.18334,-0.183333 0.80881,0.634306 1.06602,1.033032 0.66638,1.033032 -0.10075,0 -0.4832,-0.382357 -0.84972,-0.849717 z m -2.42775,-3.398868 c -0.60397,-0.770126 -0.5868,-0.787303 0.18333,-0.183333 0.46734,0.366501 0.84972,0.748875 0.84972,0.849717 0,0.399625 -0.39873,0.142409 -1.03303,-0.666402 z m -9.75985,9.95383 c -1.14593,-1.751644 -6.88272,-5.014637 -11.19991,-6.370308 -5.067253,-1.591233 -8.183023,-2.271234 -7.836323,-1.710243 0.37261,0.602869 0.0332,0.54864 -2.22773,-0.356022 -3.21617,-1.286852 -2.77313,-0.392504 1.02164,2.062319 5.64806,3.653717 14.958123,7.095014 20.048093,7.410424 0.83197,0.05157 0.84841,-0.03615 0.19423,-1.03617 z m -3.28815,-1.335264 c -0.93471,-0.511717 -1.52473,-0.939567 -1.31117,-0.950761 0.51454,-0.02698 3.25337,1.397054 3.25337,1.691561 0,0.317795 -0.0284,0.306949 -1.9422,-0.7408 z m 7.47154,-3.520264 c 1.14269,-1.814499 -1.68282,-3.753954 -2.94809,-2.023597 -0.82375,1.126551 -0.80521,1.423884 0.14828,2.377325 0.9464,0.946393 2.07054,0.80437 2.79987,-0.353728 z m 43.59473,-2.624411 c 1.15621,-1.046355 1.12591,-2.229429 -0.0851,-3.325406 -1.43128,-1.295295 -3.3969,-0.330862 -3.3969,1.666694 0,2.193533 1.89407,3.095791 3.48203,1.658712 z M 91.118037,65.971597 c -1.78334,2.218198 3.41382,-0.671853 6.56138,-3.648671 4.112093,-3.889039 8.740003,-10.302621 5.151363,-7.138966 l -1.33528,1.177129 1.15696,-1.313793 c 0.6363,-0.722577 1.37116,-1.268813 1.633,-1.213869 0.26182,0.05487 0.55921,-0.391733 0.66082,-0.992602 0.10167,-0.600869 0.0699,-1.092491 -0.0707,-1.092491 -0.93201,0 -7.389073,4.89849 -10.061123,7.632625 -3.49591,3.577117 -6.65956,7.413194 -6.66705,8.084111 -0.002,0.231983 0.81465,-0.195646 1.81611,-0.950283 1.00145,-0.754656 1.52095,-0.999081 1.15443,-0.54319 z m 0.90917,-0.811087 c 0,-0.100751 0.38238,-0.483198 0.84972,-0.849717 0.77011,-0.60397 0.78728,-0.586793 0.18333,0.183333 -0.6343,0.808811 -1.03303,1.066009 -1.03303,0.666384 z m 1.94221,-1.425279 c 0,-0.0835 0.71012,-0.79369 1.57806,-1.578038 l 1.57804,-1.426123 -1.42611,1.578056 c -1.32935,1.470956 -1.72999,1.80123 -1.72999,1.426105 z m 5.3208,-4.824991 c 2.012113,-2.143801 2.448053,-2.529295 2.448053,-2.164685 0,0.07799 -1.03786,1.115797 -2.306383,2.306378 l -2.30637,2.164684 z m 38.864573,7.561806 c 3.00306,-0.819144 7.2833,-2.984801 7.2833,-3.685099 0,-0.253179 -0.32075,-0.337248 -0.71277,-0.186819 -0.39203,0.150483 -0.83247,0.07983 -0.97877,-0.156907 -0.92947,-1.503934 -9.97866,-0.901156 -15.07023,1.003834 -3.04286,1.13848 -5.6409,3.183127 -4.54298,3.575319 2.28788,0.817235 10.13711,0.509129 14.02145,-0.550402 z m -24.12872,-2.826958 c 4.00919,-1.378556 8.7278,-4.377432 11.43874,-7.269777 1.10429,-1.178193 2.00779,-2.292393 2.00779,-2.47602 0,-0.540492 -4.85516,0.232295 -8.07247,1.284871 -3.22161,1.053989 -8.0933,3.779463 -9.65022,5.398828 -0.58189,0.605237 -0.67919,0.871537 -0.24277,0.664439 0.40058,-0.190086 0.0767,0.162229 -0.71964,0.782899 -0.79639,0.620689 -1.99813,1.633368 -2.67055,2.250405 l -1.22259,1.121908 2.91332,-0.310564 c 1.60234,-0.170854 4.40061,-0.821951 6.21839,-1.446989 z M 96.882737,159.05563 c 0,-0.26706 0.2185,-0.48555 0.48555,-0.48555 0.26705,0 0.48556,0.21849 0.48556,0.48555 0,0.26705 -0.21851,0.48556 -0.48556,0.48556 -0.26705,0 -0.48555,-0.21851 -0.48555,-0.48556 z m 1.25415,-0.90593 c -0.20915,-0.33844 -0.24916,-0.74647 -0.0888,-0.90674 0.43457,-0.43454 0.90837,0.20457 0.67365,0.90868 -0.16443,0.49342 -0.27883,0.49304 -0.58476,-0.002 z m 0.93083,-1.52183 c -0.19379,-0.31359 -0.13396,-0.78868 0.13324,-1.05573 0.3237,-0.3237 0.60301,-0.2955 0.837933,0.0846 0.19381,0.31359 0.13397,0.78866 -0.133233,1.05571 -0.32371,0.32371 -0.60302,0.2955 -0.83796,-0.0846 z m 1.213893,-2.42777 c 0,-0.73131 0.25355,-0.99348 0.84972,-0.87868 0.46736,0.0899 0.84971,0.4854 0.84971,0.87868 0,0.39326 -0.38235,0.78866 -0.84971,0.87867 -0.59617,0.11489 -0.84972,-0.14736 -0.84972,-0.87867 z m 1.61973,-1.73208 c -0.40469,-1.0546 0.62269,-2.04637 1.35808,-1.31099 0.62151,0.62152 0.23648,2.07196 -0.55004,2.07196 -0.28382,0 -0.64744,-0.34243 -0.80804,-0.76097 z m 5.37877,-7.31623 c 0.15673,-0.40819 0.2848,-1.02659 0.2848,-1.37417 0,-0.3476 0.43701,-0.74627 0.97111,-0.88594 1.52721,-0.39937 1.27764,1.69435 -0.28859,2.42122 -1.07071,0.49691 -1.21086,0.47357 -0.96732,-0.16113 z m 5.95408,-8.62691 c -0.32741,-0.85324 0.0639,-1.26137 1.2094,-1.26137 0.56648,0 0.89018,0.35314 0.89018,0.97112 0,1.13108 -1.68741,1.36435 -2.09958,0.29025 z m 1.61402,-2.47525 c 0,-0.40462 0.43161,-0.72832 0.97111,-0.72832 0.5395,0 0.97111,0.3237 0.97111,0.72832 0,0.40463 -0.43161,0.72834 -0.97111,0.72834 -0.5395,0 -0.97111,-0.32371 -0.97111,-0.72834 z m 1.72017,-1.66587 c -0.35909,-0.58103 0.55433,-1.1567 1.20108,-0.75699 0.54302,0.3356 0.18652,1.20899 -0.49348,1.20899 -0.23552,0 -0.55394,-0.20341 -0.7076,-0.452 z m 1.19315,-1.97577 c 0,-0.26706 0.32776,-0.48555 0.72834,-0.48555 0.40058,0 0.72832,0.21849 0.72832,0.48555 0,0.26705 -0.32774,0.48554 -0.72832,0.48554 -0.40058,0 -0.72834,-0.21849 -0.72834,-0.48554 z m 1.45666,-1.48533 c 0,-0.2828 0.21851,-0.37916 0.48556,-0.21411 0.26706,0.16498 0.48555,0.39643 0.48555,0.51421 0,0.11782 -0.21849,0.21411 -0.48555,0.21411 -0.26705,0 -0.48556,-0.23139 -0.48556,-0.51421 z M 42.519667,101.66877 c -1.39693,-1.49942 -1.274607,-3.498528 0.289344,-4.728728 1.680093,-1.32156 2.870574,-1.27052 4.32657,0.18546 1.49593,1.49593 1.521181,3.185028 0.06803,4.550188 -1.438617,1.35151 -3.421096,1.34859 -4.683937,-0.007 z m 3.354756,-0.3805 c 2.130012,-1.13995 1.46074,-3.897918 -0.945904,-3.897918 -2.875967,0 -2.950658,3.616238 -0.08946,4.331638 0.08433,0.0211 0.550237,-0.17415 1.035371,-0.43372 z m 3.944873,-9.061698 c -0.553493,-0.70366 -1.006348,-1.69683 -1.006348,-2.20706 0,-1.29221 2.151254,-3.31133 3.528023,-3.31133 1.638508,0 3.269724,1.70509 3.269724,3.41779 0,3.16075 -3.857039,4.55974 -5.791399,2.1006 z m 3.899322,-0.60582 c 0.99629,-0.80674 1.060836,-1.06328 0.549754,-2.18499 -0.999228,-2.19307 -3.998764,-1.45266 -3.998764,0.98705 0,0.94898 1.056954,2.05191 2.009809,2.09724 0.170707,0.007 0.818347,-0.39656 1.439201,-0.8993 z m 4.637876,-6.771627 c -1.104621,-1.220603 -1.019693,-3.621509 0.166064,-4.694602 1.168975,-1.057898 3.744925,-1.078709 4.784994,-0.03872 1.076029,1.076029 0.97379,4.115976 -0.166468,4.949745 -1.302297,0.952266 -3.83039,0.837862 -4.784586,-0.216512 z m 3.954838,-0.665815 c 0.804934,-0.804939 0.730107,-2.574953 -0.139362,-3.296539 -0.991474,-0.82285 -3.026883,-0.226037 -3.416581,1.001797 -0.613209,1.932059 2.141163,3.709506 3.555941,2.294742 z"
       id="path1-4"
       sodipodi:nodetypes="cscsssscscsssscsscsssssscscsscssssssssssscsssscssssscsssssscssscsssssssscsscscssssscssssscscssssssscssssssssssssssssssscssssccssssscssssssssscsscssccssscssssssssssssssssssssssssscsssssssssscsssssssssssssssssssssssssssscssssccsccccssccsssccssccccccsscsssssssssssssssssssssssssscccsssccsssssssssscssccsscssssssccsccsssssssssssssssssscssscssccsscsssssssssssssscssssssssssssscsscscsccscscccssssccsssssssssssssssssssssssssssssssscssscccssccssssssssscscssssscsscsssssssscscccccscssssccsssssssssssccssssscsscsssccssssssscsssssscscsssssccsssssscscsccscsssscssscsssssssscsssscsssssssscccssssccsssssccsssccssssccssssscsccccccccsssscssssccccscsccssccsccssssssssssssssssscsssssssscsssscsssssssssscssssscssccccsccccscccssccscssccsccsssssssscsscsscsscccsssscssssscssccssssssssscscssccssssssssssssssscssccsscsssccsssssssssscssccccccsscsssscsccccsscccssccccsscsccssssssccssssscscsccssccssssssssccsssssscccccccscccscscsssssssssssssssssssscsscsssssscssscsssccssssssssssssscscscsccsssss" />
  </g>
</svg>
